<?xml version="1.0" encoding="iso-8859-1"?>
<!-- Uploaded to: SVG Repo, www.svgrepo.com, Generator: SVG Repo Mixer Tools -->
<svg height="800px" width="800px" version="1.1" id="Layer_1" xmlns="http://www.w3.org/2000/svg" xmlns:xlink="http://www.w3.org/1999/xlink" 
	 viewBox="0 0 512 512" xml:space="preserve">
<g transform="translate(1)">
	<path style="fill:#FDCC00;" d="M127,336.234c261.973,57.173,375.467-11.947,375.467-11.947v25.6
		c-136.533,84.48-365.227,17.92-366.933,17.067L127,375.487H7.533V332.82h82.773C102.253,332.82,115.053,333.674,127,336.234"/>
	<path style="fill:#FFE100;" d="M502.467,324.287c-2.56-16.213-25.6-25.6-25.6-25.6s-137.387-2.56-179.2-51.2
		s-85.333-59.733-85.333-59.733l-17.067,17.067C87.747,308.927,24.6,221.887,24.6,221.887
		C-7.827,271.38,16.067,332.82,16.067,332.82h74.24c11.947,0,24.747,0.853,36.693,3.413
		C388.973,393.407,502.467,324.287,502.467,324.287L502.467,324.287z"/>
	<path style="fill:#FDCC00;" d="M420.547,294.42c-41.813-5.12-94.72-17.92-119.467-43.52c-0.853,0.853-1.707,1.707-3.413,2.56
		c-2.56,20.48-18.773,36.693-40.107,38.4c-45.227,2.56-110.933,13.653-112.64,48.64c-0.853,0-2.56-0.853-3.413-0.853
		c50.347,10.24,94.72,15.36,133.12,17.92c10.24-29.013,69.12-37.547,110.933-40.96C400.067,315.754,412.867,306.367,420.547,294.42"
		/>
	<g>
		<path style="fill:#FFFFFF;" d="M42.52,238.1c-11.093-8.533-17.067-16.213-17.067-16.213C-6.973,271.38,16.92,332.82,16.92,332.82
			h25.6C42.52,332.82,23.747,284.18,42.52,238.1"/>
		<path style="fill:#FFFFFF;" d="M92.013,332.82H91.16H8.387v42.667h25.6V332.82H92.013z"/>
	</g>
	<g>
		<path style="fill:#FFA800;" d="M502.467,324.287L502.467,324.287L502.467,324.287L502.467,324.287z"/>
		<path style="fill:#FFA800;" d="M451.267,298.687c0,0,23.04,9.387,25.6,25.6l0,0l0,0l0,0c0,0-52.907,32.427-169.813,34.133
			c134.827,2.56,195.413-34.133,195.413-34.133c-2.56-16.213-25.6-25.6-25.6-25.6H451.267z"/>
		<path style="fill:#FFA800;" d="M476.867,335.38v14.507c-49.493,30.72-110.933,40.96-168.96,42.667
			c65.707,1.707,138.24-7.68,194.56-42.667v-25.6C502.467,324.287,493.933,329.407,476.867,335.38"/>
	</g>
	<path d="M321.56,401.087c-84.48,0-160.427-18.773-183.467-24.747l-5.12,5.12c-1.707,1.707-3.413,2.56-5.973,2.56H7.533
		c-5.12,0-8.533-3.413-8.533-8.533V332.82c0-5.12,3.413-8.533,8.533-8.533h82.773c13.653,0,26.453,1.707,38.4,4.267
		C196.973,343.06,260.973,350.74,319,350.74c122.88,0,178.347-33.28,179.2-33.28c2.56-1.707,5.973-1.707,8.533,0
		s4.267,4.267,4.267,7.68v25.6c0,2.56-1.707,5.973-4.267,6.827C459.8,386.58,397.507,401.087,321.56,401.087L321.56,401.087z
		 M135.533,358.42c0.853,0,1.707,0,1.707,0c15.36,4.267,94.72,25.6,183.467,25.6l0,0c70.827,0,128.853-12.8,172.373-39.253v-6.827
		c-23.893,10.24-80.213,29.013-174.933,29.013l0,0c-59.733,0-124.587-7.68-193.707-22.187c-11.093-2.56-23.04-3.413-34.987-3.413
		H16.067v25.6h107.52l5.973-5.973C131.267,359.274,132.973,358.42,135.533,358.42z"/>
	<path d="M319,366.954c-59.733,0-124.587-7.68-193.707-22.187c-11.093-2.56-23.04-3.413-34.987-3.413h-74.24l0,0
		c-3.413,0-6.827-1.707-7.68-5.12c0-0.853-25.6-64.853,9.387-118.613c0.853-2.56,3.413-4.267,6.827-4.267
		c2.56,0,5.12,0.853,6.827,3.413c0,0,23.04,30.72,63.147,30.72c29.867,0,61.44-16.213,94.72-48.64l17.067-17.067
		c1.707-2.56,5.12-3.413,7.68-2.56c1.707,0.853,46.933,11.947,89.6,62.293c39.253,46.08,172.373,48.64,173.227,48.64
		c0.853,0,2.56,0,3.413,0.853c2.56,0.853,26.453,11.947,30.72,31.573c0,0.853,0,1.707,0,2.56c0,3.413-1.707,6.827-5.12,7.68
		C497.347,337.087,438.467,366.954,319,366.954z M90.307,324.287c13.653,0,26.453,1.707,38.4,4.267
		C196.973,343.06,260.973,350.74,319,350.74c98.987,0,154.453-21.333,172.373-29.867c-4.267-5.973-11.947-10.24-17.067-12.8
		c-17.067-0.853-141.653-5.12-183.467-53.76c-31.573-37.547-64.853-51.2-76.8-55.467L200.387,212.5
		c-36.693,35.84-72.533,53.76-106.667,53.76c-33.28,0-56.32-17.067-68.267-28.16c-17.067,34.987-8.533,74.24-4.267,87.893
		L90.307,324.287z"/>
	<path d="M229.4,230.42c-2.56,0-4.267-0.853-5.973-2.56c-3.413-3.413-3.413-8.533,0-11.947l17.067-17.067
		c3.413-3.413,8.533-3.413,11.947,0s3.413,8.533,0,11.947l-17.067,17.067C233.667,229.567,231.96,230.42,229.4,230.42z"/>
	<path d="M255,256.02c-2.56,0-4.267-0.853-5.973-2.56c-3.413-3.413-3.413-8.533,0-11.947l21.333-21.333
		c3.413-3.413,8.533-3.413,11.947,0c3.413,3.413,3.413,8.533,0,11.947l-21.333,21.333C259.267,255.167,257.56,256.02,255,256.02z"/>
	<path d="M273.773,366.1L273.773,366.1c-41.813-2.56-85.333-8.533-131.413-17.067l0,0l0,0h-1.707l0,0l0,0l0,0h-1.707
		c-4.267-0.853-7.68-5.12-6.827-10.24c0.853-2.56,2.56-5.12,5.12-5.973c9.387-34.133,69.12-45.227,119.467-48.64
		c17.067-0.853,30.72-14.507,32.427-30.72c0-2.56,1.707-4.267,3.413-5.973l3.413-2.56c3.413-2.56,8.533-2.56,11.093,0.853
		c23.893,24.747,75.947,35.84,115.2,40.96c2.56,0,5.12,1.707,6.827,4.267c0.853,2.56,0.853,5.12,0,7.68
		c-8.533,16.213-24.747,25.6-42.667,27.307c-58.88,3.413-96.427,16.213-103.253,34.987C280.6,363.54,277.187,366.1,273.773,366.1z
		 M154.307,333.674c40.107,7.68,78.507,12.8,114.347,15.36c12.8-22.187,52.053-35.84,115.2-40.107
		c7.68-0.853,14.507-3.413,19.627-7.68c-34.987-5.973-75.093-16.213-100.693-35.84c-6.827,19.627-24.747,34.133-46.08,34.987
		C198.68,303.807,162.84,315.754,154.307,333.674z"/>
	<path d="M323.267,214.207c-7.68,0-15.36-4.267-23.04-11.947c-19.627-18.773-46.933,7.68-47.787,8.533
		c-3.413,3.413-8.533,3.413-11.947,0c-3.413-3.413-3.413-8.533,0-11.947c13.653-13.653,46.933-32.427,71.68-8.533
		c5.12,5.12,9.387,7.68,11.947,6.827c3.413-0.853,6.827-7.68,7.68-11.093c0.853-4.267,5.973-7.68,10.24-5.973
		c4.267,0.853,7.68,5.973,5.973,10.24c-0.853,1.707-5.12,19.627-19.627,23.04C327.533,213.354,324.973,214.207,323.267,214.207z"/>
	<path d="M238.787,204.82c-2.56,0-5.12-0.853-6.827-3.413c-3.413-4.267-21.333-26.453-14.507-43.52
		c2.56-5.973,7.68-12.8,22.187-14.507c6.827-0.853,11.947-3.413,12.8-5.973c1.707-3.413-1.707-10.24-4.267-12.8
		c-2.56-3.413-1.707-9.387,1.707-11.947c3.413-2.56,9.387-2.56,11.947,1.707c0.853,1.707,11.947,16.213,6.827,29.867
		c-3.413,8.533-12.8,14.507-26.453,16.213c-2.56,0-7.68,1.707-8.533,4.267c-2.56,5.973,5.12,18.773,11.947,26.453
		c3.413,3.413,2.56,9.387-0.853,11.947C242.2,203.967,240.493,204.82,238.787,204.82z"/>
</g>
</svg>